[Header]
FileType HTR
DataType HTRS
FileVersion 1
NumSegments 64
NumFrames 4
DataFrameRate 30
EulerRotationOrder ZYX
CalibrationUnits mm
RotationUnits Degrees
GlobalAxisofGravity Y
BoneLengthAxis Y
ScaleFactor 1.0
[SegmentNames&Hierarchy]
Hips	GLOBAL
Spine	Hips
Spine1	Spine
Spine2	Spine1
Neck	Spine2
Head	Neck
LeftEye	Head
RightEye	Head
LeftShoulder	Spine2
LeftArm	LeftShoulder
LeftForeArm	LeftArm
LeftHand	LeftForeArm
LeftHandThumb1	LeftHand
LeftHandThumb2	LeftHandThumb1
LeftHandThumb3	LeftHandThumb2
LeftHandThumb4	LeftHandThumb3
LeftHandIndex1	LeftHand
LeftHandIndex2	LeftHandIndex1
LeftHandIndex3	LeftHandIndex2
LeftHandIndex4	LeftHandIndex3
LeftHandMiddle1	LeftHand
LeftHandMiddle2	LeftHandMiddle1
LeftHandMiddle3	LeftHandMiddle2
LeftHandMiddle4	LeftHandMiddle3
LeftHandRing1	LeftHand
LeftHandRing2	LeftHandRing1
LeftHandRing3	LeftHandRing2
LeftHandRing4	LeftHandRing3
LeftHandPinky1	LeftHand
LeftHandPinky2	LeftHandPinky1
LeftHandPinky3	LeftHandPinky2
LeftHandPinky4	LeftHandPinky3
RightShoulder	Spine2
RightArm	RightShoulder
RightForeArm	RightArm
RightHand	RightForeArm
RightHandPinky1	RightHand
RightHandPinky2	RightHandPinky1
RightHandPinky3	RightHandPinky2
RightHandPinky4	RightHandPinky3
RightHandRing1	RightHand
RightHandRing2	RightHandRing1
RightHandRing3	RightHandRing2
RightHandRing4	RightHandRing3
RightHandMiddle1	RightHand
RightHandMiddle2	RightHandMiddle1
RightHandMiddle3	RightHandMiddle2
RightHandMiddle4	RightHandMiddle3
RightHandIndex1	RightHand
RightHandIndex2	RightHandIndex1
RightHandIndex3	RightHandIndex2
RightHandIndex4	RightHandIndex3
RightHandThumb1	RightHand
RightHandThumb2	RightHandThumb1
RightHandThumb3	RightHandThumb2
RightHandThumb4	RightHandThumb3
LeftUpLeg	Hips
LeftLeg	LeftUpLeg
LeftFoot	LeftLeg
LeftToeBase	LeftFoot
RightUpLeg	Hips
RightLeg	RightUpLeg
RightFoot	RightLeg
RightToeBase	RightFoot
[BasePosition]
Hips	0	0	0	0	0	0	1
Spine	0	0	0	0	0	0	1
Spine1	0	0	0	0	0	0	1
Spine2	0	0	0	0	0	0	1
Neck	0	0	0	0	0	0	1
Head	0	0	0	0	0	0	1
LeftEye	0	0	0	0	0	0	1
RightEye	0	0	0	0	0	0	1
LeftShoulder	0	0	0	0	0	0	1
LeftArm	0	0	0	0	0	0	1
LeftForeArm	0	0	0	0	0	0	1
LeftHand	0	0	0	0	0	0	1
LeftHandThumb1	0	0	0	0	0	0	1
LeftHandThumb2	0	0	0	0	0	0	1
LeftHandThumb3	0	0	0	0	0	0	1
LeftHandThumb4	0	0	0	0	0	0	1
LeftHandIndex1	0	0	0	0	0	0	1
LeftHandIndex2	0	0	0	0	0	0	1
LeftHandIndex3	0	0	0	0	0	0	1
LeftHandIndex4	0	0	0	0	0	0	1
LeftHandMiddle1	0	0	0	0	0	0	1
LeftHandMiddle2	0	0	0	0	0	0	1
LeftHandMiddle3	0	0	0	0	0	0	1
LeftHandMiddle4	0	0	0	0	0	0	1
LeftHandRing1	0	0	0	0	0	0	1
LeftHandRing2	0	0	0	0	0	0	1
LeftHandRing3	0	0	0	0	0	0	1
LeftHandRing4	0	0	0	0	0	0	1
LeftHandPinky1	0	0	0	0	0	0	1
LeftHandPinky2	0	0	0	0	0	0	1
LeftHandPinky3	0	0	0	0	0	0	1
LeftHandPinky4	0	0	0	0	0	0	1
RightShoulder	0	0	0	0	0	0	1
RightArm	0	0	0	0	0	0	1
RightForeArm	0	0	0	0	0	0	1
RightHand	0	0	0	0	0	0	1
RightHandPinky1	0	0	0	0	0	0	1
RightHandPinky2	0	0	0	0	0	0	1
RightHandPinky3	0	0	0	0	0	0	1
RightHandPinky4	0	0	0	0	0	0	1
RightHandRing1	0	0	0	0	0	0	1
RightHandRing2	0	0	0	0	0	0	1
RightHandRing3	0	0	0	0	0	0	1
RightHandRing4	0	0	0	0	0	0	1
RightHandMiddle1	0	0	0	0	0	0	1
RightHandMiddle2	0	0	0	0	0	0	1
RightHandMiddle3	0	0	0	0	0	0	1
RightHandMiddle4	0	0	0	0	0	0	1
RightHandIndex1	0	0	0	0	0	0	1
RightHandIndex2	0	0	0	0	0	0	1
RightHandIndex3	0	0	0	0	0	0	1
RightHandIndex4	0	0	0	0	0	0	1
RightHandThumb1	0	0	0	0	0	0	1
RightHandThumb2	0	0	0	0	0	0	1
RightHandThumb3	0	0	0	0	0	0	1
RightHandThumb4	0	0	0	0	0	0	1
LeftUpLeg	0	0	0	0	0	0	1
LeftLeg	0	0	0	0	0	0	1
LeftFoot	0	0	0	0	0	0	1
LeftToeBase	0	0	0	0	0	0	1
RightUpLeg	0	0	0	0	0	0	1
RightLeg	0	0	0	0	0	0	1
RightFoot	0	0	0	0	0	0	1
RightToeBase	0	0	0	0	0	0	1
[Hips]
13	70.09753418	874.4451294	-67.15529633	27.13423729	-23.46217346	-7.858754158	1.0
14	76.97512817	834.8895264	-75.44667053	30.88876343	-22.73459244	-8.848020554	1.0
15	83.48990631	799.0323486	-80.26478577	33.70022583	-21.607584	-9.18258667	1.0
16	89.01260376	770.0135498	-81.131073	35.28305435	-20.65394211	-9.020996094	1.0
[Spine]
13	0	101.8159943	1.315000057	9.519589424	-3.879025936	0.7460862398	1.0
14	0	101.8159943	1.315000057	10.25264168	-4.424475193	1.156225562	1.0
15	0	101.8159943	1.315000057	10.62399292	-4.489113808	1.553142548	1.0
16	0	101.8159943	1.315000057	10.74769878	-4.343786716	1.866407156	1.0
[Spine1]
13	0	100.8349991	-10.00800037	3.648967266	-1.438357234	0.9842536449	1.0
14	0	100.8349991	-10.00800037	3.934844017	-1.182813048	0.9781229496	1.0
15	0	100.8349991	-10.00800037	4.100553989	-0.7748978734	0.949443996	1.0
16	0	100.8349991	-10.00800037	4.169344425	-0.5026770234	0.917827189	1.0
[Spine2]
13	0	91	-13.73399925	3.61587882	-1.445675254	0.9729654789	1.0
14	0	91	-13.73399925	3.898994446	-1.206040025	0.9306497574	1.0
15	0	91	-13.73399925	4.06345129	-0.8151666522	0.8668346405	1.0
16	0	91	-13.73399925	4.131671906	-0.5581214428	0.8180062771	1.0
[Neck]
13	0	166.7169952	-25.16200066	-6.033755302	4.073566437	3.3619771	1.0
14	0	166.7169952	-25.16200066	-7.23277998	4.064929008	3.812834263	1.0
15	0	166.7169952	-25.16200066	-8.682762146	3.816373587	4.588173866	1.0
16	0	166.7169952	-25.16200066	-10.33864498	3.607562304	5.687059402	1.0
[Head]
13	0	96.17900085	16.84999847	-33.35180664	17.72307205	-9.946439743	1.0
14	0	96.17900085	16.84999847	-39.4474411	17.29891586	-10.89445114	1.0
15	0	96.17900085	16.84999847	-44.48993683	16.20860291	-10.4890852	1.0
16	0	96.17900085	16.84999847	-47.85587311	15.25883102	-9.29144001	1.0
[LeftEye]
13	30.6760006	64.09500122	92.83599854	0	0	0	1.0
14	30.6760006	64.09500122	92.83599854	0	0	0	1.0
15	30.6760006	64.09500122	92.83599854	0	0	0	1.0
16	30.6760006	64.09500122	92.83599854	0	0	0	1.0
[RightEye]
13	-30.6760006	64.09500122	92.83499908	0	0	0	1.0
14	-30.6760006	64.09500122	92.83499908	0	0	0	1.0
15	-30.6760006	64.09500122	92.83499908	0	0	0	1.0
16	-30.6760006	64.09500122	92.83499908	0	0	0	1.0
[LeftShoulder]
13	45.70400238	109.4599991	-26.28000069	5.480799675	-20.96806526	-9.812270164	1.0
14	45.70400238	109.4599991	-26.28000069	5.809160709	-21.89646721	-10.75919628	1.0
15	45.70400238	109.4599991	-26.28000069	5.934883595	-22.84853172	-10.80717373	1.0
16	45.70400238	109.4599991	-26.28000069	5.790863991	-23.79408264	-9.754837036	1.0
[LeftArm]
13	105.923996	-5.24600029	-22.32099915	10.25648308	-28.64645386	-38.86113358	1.0
14	105.923996	-5.24600029	-22.32099915	10.90527058	-36.5508194	-32.7848587	1.0
15	105.923996	-5.24600029	-22.32099915	17.52715492	-45.19604492	-30.5288868	1.0
16	105.923996	-5.24600029	-22.32099915	29.63962364	-52.79983139	-33.75499344	1.0
[LeftForeArm]
13	278.414978	-0.0009999999311	0	-7.403653854e-06	-22.25008774	-0.0002087599278	1.0
14	278.414978	-0.0009999999311	0	-5.083772976e-06	-32.56911469	-0.0002008343727	1.0
15	278.414978	-0.0009999999311	0	-1.414022677e-06	-44.13876724	-0.0001928047132	1.0
16	278.414978	-0.0009999999311	0	1.504117699e-05	-53.2988205	-0.0002209248341	1.0
[LeftHand]
13	283.2879944	0	0	-27.43160248	13.7800312	16.27262306	1.0
14	283.2879944	0	0	-24.12380028	4.487819672	11.03876209	1.0
15	283.2879944	0	0	-19.46629715	-4.015443802	1.727291822	1.0
16	283.2879944	0	0	-9.67506218	-8.398392677	-7.428990841	1.0
[LeftHandThumb1]
13	24.6609993	-15.75	26.8239994	-0.489025116	2.201318502	4.818519592	1.0
14	24.6609993	-15.75	26.8239994	-0.4889724255	2.201452494	4.818557739	1.0
15	24.6609993	-15.75	26.8239994	-0.4888983965	2.201634407	4.81861496	1.0
16	24.6609993	-15.75	26.8239994	-0.4889518023	2.201502562	4.818587303	1.0
[LeftHandThumb2]
13	32.29800034	-18.64699936	18.64699936	16.54138374	21.1888504	22.17941284	1.0
14	32.29800034	-18.64699936	18.64699936	8.772770882	17.33409882	18.45659637	1.0
15	32.29800034	-18.64699936	18.64699936	3.097468853	16.19003487	15.7307663	1.0
16	32.29800034	-18.64699936	18.64699936	1.239732623	17.64048958	13.15782928	1.0
[LeftHandThumb3]
13	26.52600098	-15.31499958	15.31499958	-12.33196831	5.709937096	7.976438522	1.0
14	26.52600098	-15.31499958	15.31499958	-12.1967926	10.57489777	7.101649761	1.0
15	26.52600098	-15.31499958	15.31499958	-12.27254486	12.14795113	9.190878868	1.0
16	26.52600098	-15.31499958	15.31499958	-12.09049988	13.74059677	12.5289793	1.0
[LeftHandThumb4]
13	19.54599953	-11.28499985	11.28499985	0	0	0	1.0
14	19.54599953	-11.28499985	11.28499985	0	0	0	1.0
15	19.54599953	-11.28499985	11.28499985	0	0	0	1.0
16	19.54599953	-11.28499985	11.28499985	0	0	0	1.0
[LeftHandIndex1]
13	91.09299469	-5.170999527	22.60099792	-0.2383474112	-0.6102509499	-13.07072163	1.0
14	91.09299469	-5.170999527	22.60099792	-0.3752887845	-1.334865689	-11.38480568	1.0
15	91.09299469	-5.170999527	22.60099792	-0.02897654474	-0.44947505	-11.87866497	1.0
16	91.09299469	-5.170999527	22.60099792	0.662992537	1.642661691	-14.06574154	1.0
[LeftHandIndex2]
13	36.76399994	0	0	-0.3511850536	1.994864345	-19.96296692	1.0
14	36.76399994	0	0	-0.3584508002	2.015026331	-20.17327309	1.0
15	36.76399994	0	0	-0.3401790261	1.964476824	-19.64588737	1.0
16	36.76399994	0	0	-0.3266691864	1.926319838	-19.24877548	1.0
[LeftHandIndex3]
13	28.83100128	0	0	-0.1002578139	1.077495337	-10.62374783	1.0
14	28.83100128	0	0	-0.104172729	1.098688245	-10.83498669	1.0
15	28.83100128	0	0	-0.09435152262	1.04587543	-10.30817699	1.0
16	28.83100128	0	0	-0.08720365167	1.005890369	-9.909992218	1.0
[LeftHandIndex4]
13	23.92700005	0	0	0	0	0	1.0
14	23.92700005	0	0	0	0	0	1.0
15	23.92700005	0	0	0	0	0	1.0
16	23.92700005	0	0	0	0	0	1.0
[LeftHandMiddle1]
13	95.33399963	0	0	-1.31037128	2.617815733	-22.82525826	1.0
14	95.33399963	0	0	-1.246259928	3.068422556	-21.9830761	1.0
15	95.33399963	0	0	-1.234834075	3.733669043	-21.82165718	1.0
16	95.33399963	0	0	-1.348934412	4.028661251	-23.29122353	1.0
[LeftHandMiddle2]
13	36.98199844	0	0	-0.2937587798	1.829448223	-18.24488449	1.0
14	36.98199844	0	0	-0.2851285338	1.802764297	-17.96975136	1.0
15	36.98199844	0	0	-0.2719236016	1.761849165	-17.54794693	1.0
16	36.98199844	0	0	-0.2712789178	1.759692192	-17.52600288	1.0
[LeftHandMiddle3]
13	29.50900078	0	0	-0.3268649578	1.926941514	-19.25516701	1.0
14	29.50900078	0	0	-0.3177506626	1.900375843	-18.97948265	1.0
15	29.50900078	0	0	-0.3037047088	1.859348059	-18.55392647	1.0
16	29.50900078	0	0	-0.3029005229	1.856861115	-18.52820969	1.0
[LeftHandMiddle4]
13	28.3390007	0	0	0	0	0	1.0
14	28.3390007	0	0	0	0	0	1.0
15	28.3390007	0	0	0	0	0	1.0
16	28.3390007	0	0	0	0	0	1.0
[LeftHandRing1]
13	91.04499817	-0.4390000105	-18.65100098	-1.514003277	2.843673468	-25.36568451	1.0
14	91.04499817	-0.4390000105	-18.65100098	-1.567663193	2.192856789	-26.06758881	1.0
15	91.04499817	-0.4390000105	-18.65100098	-1.508782864	1.880307436	-25.35858917	1.0
16	91.04499817	-0.4390000105	-18.65100098	-1.505142212	1.768137574	-25.31521797	1.0
[LeftHandRing2]
13	31.54000092	0	0	-0.4530334473	2.255021095	-22.70548439	1.0
14	31.54000092	0	0	-0.4903347492	2.343032837	-23.64382172	1.0
15	31.54000092	0	0	-0.5158472061	2.400130987	-24.25773811	1.0
16	31.54000092	0	0	-0.5488889217	2.471987009	-25.03421593	1.0
[LeftHandRing3]
13	29.37700081	0	0	-0.3409877419	1.966090679	-19.66345978	1.0
14	29.37700081	0	0	-0.3738307655	2.056700945	-20.60925293	1.0
15	29.37700081	0	0	-0.3964585364	2.115510464	-21.22770691	1.0
16	29.37700081	0	0	-0.4256820977	2.189157963	-22.00534439	1.0
[LeftHandRing4]
13	26.47500038	0	0	0	0	0	1.0
14	26.47500038	0	0	0	0	0	1.0
15	26.47500038	0	0	0	0	0	1.0
16	26.47500038	0	0	0	0	0	1.0
[LeftHandPinky1]
13	80.77799988	-4.887000084	-38.06099701	-2.759192944	0.3237992823	-32.94218445	1.0
14	80.77799988	-4.887000084	-38.06099701	-2.781741381	-0.7447448969	-31.97737885	1.0
15	80.77799988	-4.887000084	-38.06099701	-2.766669273	-0.5419430137	-31.74074936	1.0
16	80.77799988	-4.887000084	-38.06099701	-3.095997572	-0.9311803579	-34.61487579	1.0
[LeftHandPinky2]
13	36	0	0	-0.3747336566	2.053205967	-20.58043671	1.0
14	36	0	0	-0.4615460634	2.277951002	-22.94560051	1.0
15	36	0	0	-0.4990159869	2.362859011	-23.85632896	1.0
16	36	0	0	-0.509683311	2.386294365	-24.10911942	1.0
[LeftHandPinky3]
13	21.14200211	0	0	-0.3418225646	1.963437796	-19.64180946	1.0
14	21.14200211	0	0	-0.4246968627	2.188926935	-21.99997902	1.0
15	21.14200211	0	0	-0.4606367946	2.274221182	-22.90802574	1.0
16	21.14200211	0	0	-0.4702655375	2.296314001	-23.14465523	1.0
[LeftHandPinky4]
13	19.75699997	0	0	0	0	0	1.0
14	19.75699997	0	0	0	0	0	1.0
15	19.75699997	0	0	0	0	0	1.0
16	19.75699997	0	0	0	0	0	1.0
[RightShoulder]
13	-45.70000076	109.4620056	-26.28000069	4.286615849	13.75415993	12.33385658	1.0
14	-45.70000076	109.4620056	-26.28000069	4.590814114	14.26328182	14.45715809	1.0
15	-45.70000076	109.4620056	-26.28000069	5.081562996	15.324193	17.34474945	1.0
16	-45.70000076	109.4620056	-26.28000069	5.657494068	16.6663208	20.22002411	1.0
[RightArm]
13	-105.9280014	-5.248000145	-22.32099915	13.07183838	2.24153018	56.6869812	1.0
14	-105.9280014	-5.248000145	-22.32099915	10.78248882	1.452586055	56.37727356	1.0
15	-105.9280014	-5.248000145	-22.32099915	10.01115608	2.517549038	54.58794022	1.0
16	-105.9280014	-5.248000145	-22.32099915	10.28045368	6.433512688	51.15328979	1.0
[RightForeArm]
13	-278.414978	0	0	-8.672378499e-06	37.39958191	-1.539039295e-05	1.0
14	-278.414978	0	0	-1.657266921e-06	32.88770676	1.709013645e-06	1.0
15	-278.414978	0	0	3.285260618e-06	25.02318192	1.763214459e-05	1.0
16	-278.414978	0	0	-1.35983164e-05	16.66835976	-1.143371537e-05	1.0
[RightHand]
13	-283.2879944	0	0.0009999999311	-21.7719059	-7.82489109	-29.5692997	1.0
14	-283.2879944	0	0.0009999999311	-25.59462357	-11.2189703	-23.61526299	1.0
15	-283.2879944	0	0.0009999999311	-29.00214195	-14.12339401	-15.52284622	1.0
16	-283.2879944	0	0.0009999999311	-29.41561699	-14.34454632	-6.785711288	1.0
[RightHandPinky1]
13	-80.76699829	-4.885000229	-38.06000137	-1.836486936	-4.509552479	29.79373169	1.0
14	-80.76699829	-4.885000229	-38.06000137	-1.703307629	-5.328598499	29.92203903	1.0
15	-80.76699829	-4.885000229	-38.06000137	-1.84447813	-5.447074413	31.58771896	1.0
16	-80.76699829	-4.885000229	-38.06000137	-2.085984945	-5.187707901	33.91027832	1.0
[RightHandPinky2]
13	-36	0	0.0009999999311	-0.3050796986	-1.65434742	20.91106796	1.0
14	-36	0	0.0009999999311	-0.3197762668	-1.692750335	21.41909409	1.0
15	-36	0	0.0009999999311	-0.3169496655	-1.685269713	21.32021523	1.0
16	-36	0	0.0009999999311	-0.3088074923	-1.664279819	21.04209709	1.0
[RightHandPinky3]
13	-21.14200211	0	0	-0.2800615728	-1.587281108	20.00684166	1.0
14	-21.14200211	0	0	-0.2943678796	-1.626462698	20.52220535	1.0
15	-21.14200211	0	0	-0.2916358709	-1.618867755	20.42250824	1.0
16	-21.14200211	0	0	-0.2837384045	-1.597520828	20.14128685	1.0
[RightHandPinky4]
13	-19.75699997	0	0	0	0	0	1.0
14	-19.75699997	0	0	0	0	0	1.0
15	-19.75699997	0	0	0	0	0	1.0
16	-19.75699997	0	0	0	0	0	1.0
[RightHandRing1]
13	-91.03599548	-0.4390000105	-18.65100098	-1.41977489	-1.390462875	25.96974754	1.0
14	-91.03599548	-0.4390000105	-18.65100098	-1.401470542	-0.7648021579	25.74758339	1.0
15	-91.03599548	-0.4390000105	-18.65100098	-1.375341296	0.3907191157	25.44121933	1.0
16	-91.03599548	-0.4390000105	-18.65100098	-1.306468248	1.075475454	24.50670815	1.0
[RightHandRing2]
13	-31.54000092	0	0	-0.4762287438	-2.047101974	26.18792915	1.0
14	-31.54000092	0	0	-0.4867017865	-2.068416119	26.48144531	1.0
15	-31.54000092	0	0	-0.4783946872	-2.051539898	26.24893379	1.0
16	-31.54000092	0	0	-0.468808502	-2.032043219	25.9804039	1.0
[RightHandRing3]
13	-29.37700081	0	0	-0.3733005226	-1.823067904	23.14044571	1.0
14	-29.37700081	0	0	-0.3828448057	-1.845428944	23.4408474	1.0
15	-29.37700081	0	0	-0.3758417964	-1.829066277	23.22080803	1.0
16	-29.37700081	0	0	-0.3675183058	-1.809554338	22.95868683	1.0
[RightHandRing4]
13	-26.47500038	0	0	0	0	0	1.0
14	-26.47500038	0	0	0	0	0	1.0
15	-26.47500038	0	0	0	0	0	1.0
16	-26.47500038	0	0	0	0	0	1.0
[RightHandMiddle1]
13	-95.32500458	0	0	-1.012170076	-1.802172422	19.99581528	1.0
14	-95.32500458	0	0	-1.109858513	-0.9464252591	21.51088905	1.0
15	-95.32500458	0	0	-1.158863664	-0.06300035119	22.28673363	1.0
16	-95.32500458	0	0	-1.097909808	0.3693749011	21.40791893	1.0
[RightHandMiddle2]
13	-36.98199844	0	0	-0.5553111434	-2.200829983	28.32520485	1.0
14	-36.98199844	0	0	-0.5769818425	-2.24061203	28.88513565	1.0
15	-36.98199844	0	0	-0.5891125202	-2.262062311	29.18978882	1.0
16	-36.98199844	0	0	-0.6266613007	-2.328047276	30.12853622	1.0
[RightHandMiddle3]
13	-29.50900078	0	0	-0.5949757099	-2.274836302	29.34130478	1.0
14	-29.50900078	0	0	-0.6179478168	-2.315269709	29.91618347	1.0
15	-29.50900078	0	0	-0.6311718225	-2.33770299	30.23815346	1.0
16	-29.50900078	0	0	-0.670312345	-2.403607607	31.18589211	1.0
[RightHandMiddle4]
13	-28.3390007	0	0.0009999999311	0	0	0	1.0
14	-28.3390007	0	0.0009999999311	0	0	0	1.0
15	-28.3390007	0	0.0009999999311	0	0	0	1.0
16	-28.3390007	0	0.0009999999311	0	0	0	1.0
[RightHandIndex1]
13	-91.08300018	-5.167999744	22.60099792	-1.058440685	2.796999216	21.00211525	1.0
14	-91.08300018	-5.167999744	22.60099792	-1.230073333	3.281606197	23.60375214	1.0
15	-91.08300018	-5.167999744	22.60099792	-1.318149328	4.365489006	24.99333	1.0
16	-91.08300018	-5.167999744	22.60099792	-1.308736682	5.159318924	24.96018791	1.0
[RightHandIndex2]
13	-36.76399994	0	0	-0.2986032069	-1.637731552	20.67092896	1.0
14	-36.76399994	0	0	-0.3364277482	-1.734340549	21.9529171	1.0
15	-36.76399994	0	0	-0.3885110915	-1.857902527	23.61019897	1.0
16	-36.76399994	0	0	-0.4535616636	-2.000445604	25.54683495	1.0
[RightHandIndex3]
13	-28.83100128	0	0	-0.09157381952	-0.9178866148	11.40855217	1.0
14	-28.83100128	0	0	-0.1144412532	-1.023901105	12.74799061	1.0
15	-28.83100128	0	0	-0.1481660306	-1.162398219	14.5088377	1.0
16	-28.83100128	0	0	-0.1913919002	-1.318841457	16.51359177	1.0
[RightHandIndex4]
13	-23.92700005	0	0	0	0	0	1.0
14	-23.92700005	0	0	0	0	0	1.0
15	-23.92700005	0	0	0	0	0	1.0
16	-23.92700005	0	0	0	0	0	1.0
[RightHandThumb1]
13	-24.64799881	-15.72700024	26.82600021	-1.658385754	-0.2893486023	-4.22140646	1.0
14	-24.64799881	-15.72700024	26.82600021	-1.658373117	-0.2893788815	-4.221410275	1.0
15	-24.64799881	-15.72700024	26.82600021	-1.658553958	-0.2888472378	-4.221241474	1.0
16	-24.64799881	-15.72700024	26.82600021	-1.658860445	-0.2879611254	-4.220931053	1.0
[RightHandThumb2]
13	-32.29800034	-18.64699936	18.64699936	18.38149452	-14.77353287	-21.15984344	1.0
14	-32.29800034	-18.64699936	18.64699936	18.39006424	-14.68453693	-21.36440277	1.0
15	-32.29800034	-18.64699936	18.64699936	18.38592148	-13.69839764	-23.43206596	1.0
16	-32.29800034	-18.64699936	18.64699936	18.30700111	-11.51351166	-27.86977386	1.0
[RightHandThumb3]
13	-26.52600098	-15.31399918	15.31399918	-14.646101	-7.677649498	-17.70555305	1.0
14	-26.52600098	-15.31399918	15.31399918	-14.85447216	-7.869034767	-20.76379585	1.0
15	-26.52600098	-15.31399918	15.31399918	-16.86426544	-3.870894909	-25.16444206	1.0
16	-26.52600098	-15.31399918	15.31399918	-21.25914383	5.983602524	-29.67788315	1.0
[RightHandThumb4]
13	-19.54599953	-11.28499985	11.28499985	0	0	0	1.0
14	-19.54599953	-11.28499985	11.28499985	0	0	0	1.0
15	-19.54599953	-11.28499985	11.28499985	0	0	0	1.0
16	-19.54599953	-11.28499985	11.28499985	0	0	0	1.0
[LeftUpLeg]
13	82.07800293	-67.51699829	-15.99599934	-70.06169128	27.10531998	-0.07911553979	1.0
14	82.07800293	-67.51699829	-15.99599934	-79.73664093	27.0538826	-1.678976059	1.0
15	82.07800293	-67.51699829	-15.99599934	-87.80906677	26.55107117	-3.541260004	1.0
16	82.07800293	-67.51699829	-15.99599934	-93.53585052	26.02955246	-5.368187428	1.0
[LeftLeg]
13	0	-443.7049866	2.845999956	64.70415497	8.020394325	7.290960789	1.0
14	0	-443.7049866	2.845999956	72.2820816	6.697617531	8.124666214	1.0
15	0	-443.7049866	2.845999956	78.43803406	5.522193909	8.144537926	1.0
16	0	-443.7049866	2.845999956	83.23357391	4.673781395	7.532366276	1.0
[LeftFoot]
13	0	-444.2789917	-29.8219986	-17.98695183	0.9323522449	-3.713495493	1.0
14	0	-444.2789917	-29.8219986	-20.22926521	0.5817513466	-3.481534004	1.0
15	0	-444.2789917	-29.8219986	-22.11314392	0.4668523371	-2.769107819	1.0
16	0	-444.2789917	-29.8219986	-23.83011436	0.6393944025	-1.819264412	1.0
[LeftToeBase]
13	0	-87.28699493	107.1060028	-4.928528786	7.459954759e-06	1.334238959e-06	1.0
14	0	-87.28699493	107.1060028	-4.928522587	8.005335985e-06	1.966067657e-06	1.0
15	0	-87.28699493	107.1060028	-4.928519726	6.426621439e-06	1.49817447e-06	1.0
16	0	-87.28699493	107.1060028	-4.928518772	9.929693988e-06	-6.260720653e-08	1.0
[RightUpLeg]
13	-82.07800293	-67.51699829	-15.99599934	-65.4381485	0.970344007	2.46389842	1.0
14	-82.07800293	-67.51699829	-15.99599934	-73.98963928	-0.3637249172	3.083285809	1.0
15	-82.07800293	-67.51699829	-15.99599934	-81.04072571	-2.530551434	3.714120865	1.0
16	-82.07800293	-67.51699829	-15.99599934	-86.04262543	-4.730854988	4.163680553	1.0
[RightLeg]
13	0	-443.7049866	2.861999989	59.47384644	-2.933388472	-0.4401818514	1.0
14	0	-443.7049866	2.861999989	66.90654755	-3.539596558	1.203610182	1.0
15	0	-443.7049866	2.861999989	73.22273254	-4.267991066	2.95000124	1.0
16	0	-443.7049866	2.861999989	78.23087311	-4.932618618	4.444029331	1.0
[RightFoot]
13	0	-444.2770081	-29.83799934	-17.79376602	0.3605758846	2.977056742	1.0
14	0	-444.2770081	-29.83799934	-20.08112144	0.2361242175	2.253809214	1.0
15	0	-444.2770081	-29.83799934	-22.11555099	0.09571521729	1.496701837	1.0
16	0	-444.2770081	-29.83799934	-23.81771278	-0.02733764425	0.8768865466	1.0
[RightToeBase]
13	0	-87.28699493	107.1060028	-7.385583878	5.169562428e-06	-1.951248123e-06	1.0
14	0	-87.28699493	107.1060028	-7.356403828	-4.509547125e-06	-7.263055863e-07	1.0
15	0	-87.28699493	107.1060028	-7.272640705	-2.153603191e-06	4.421630706e-07	1.0
16	0	-87.28699493	107.1060028	-7.222793102	1.069951759e-05	-4.249397534e-06	1.0
[EndOfFile]
